<?xml version="1.0" encoding="UTF-8"?>
<svg width="192px" height="192px" viewBox="0 0 192 192" version="1.1" xmlns="http://www.w3.org/2000/svg" xmlns:xlink="http://www.w3.org/1999/xlink">
    <!-- Generator: Sketch 43.2 (39069) - http://www.bohemiancoding.com/sketch -->
    <title>192 Square</title>
    <desc>Created with Sketch.</desc>
    <defs></defs>
    <g id="Page-1" stroke="none" stroke-width="1" fill="none" fill-rule="evenodd">
        <g id="192-Square">
            <rect id="Rectangle-2" fill="#000000" x="0" y="0" width="192" height="192"></rect>
            <g id="CodeGrid-square" transform="translate(16.000000, 32.000000)" fill-rule="nonzero" fill="#FFFFFF">
                <g id="Grid" transform="translate(0.000000, 69.267840)">
                    <path d="M114.626866,0 L114.626866,21.4969158 L85.9701493,21.4969158 L85.9701493,57.3251089 L117.014925,57.3251089 L117.014925,0 L114.626866,0 Z M114.626866,54.9365627 L88.358209,54.9365627 L88.358209,23.885462 L114.626866,23.885462 L114.626866,54.9365627 Z" id="Shape"></path>
                    <polygon id="Shape" points="71.641791 21.4969158 71.641791 57.3251089 74.0298507 57.3251089 74.0298507 21.4969158"></polygon>
                    <polygon id="Shape" points="42.9850746 21.4969158 42.9850746 57.3251089 45.3731343 57.3251089 45.3731343 23.885462 59.7014925 23.885462 59.7014925 21.4969158"></polygon>
                    <polygon id="Shape" points="31.0447761 0 0 0 0 57.3251089 31.0447761 57.3251089 31.0447761 21.4969158 28.6567164 21.4969158 28.6567164 54.9365627 2.3880597 54.9365627 2.3880597 2.3885462 31.0447761 2.3885462"></polygon>
                </g>
                <g id="Code">
                    <path d="M160,38.2167392 L160,21.4969158 L128.955224,21.4969158 L128.955224,57.3251089 L160,57.3251089 L160,54.9365627 L131.343284,54.9365627 L131.343284,38.2167392 L160,38.2167392 Z M131.343284,23.885462 L157.61194,23.885462 L157.61194,35.828193 L131.343284,35.828193 L131.343284,23.885462 Z" id="Shape"></path>
                    <path d="M114.626866,0 L114.626866,21.4969158 L85.9701493,21.4969158 L85.9701493,57.3251089 L117.014925,57.3251089 L117.014925,0 L114.626866,0 Z M114.626866,54.9365627 L88.358209,54.9365627 L88.358209,23.885462 L114.626866,23.885462 L114.626866,54.9365627 Z" id="Shape"></path>
                    <path d="M42.9850746,21.4969158 L42.9850746,57.3251089 L74.0298507,57.3251089 L74.0298507,21.4969158 L42.9850746,21.4969158 Z M71.641791,54.9365627 L45.3731343,54.9365627 L45.3731343,23.885462 L71.641791,23.885462 L71.641791,54.9365627 Z" id="Shape"></path>
                    <polygon id="Shape" points="31.0447761 0 31.0447761 2.3885462 2.3880597 2.3885462 2.3880597 54.9365627 31.0447761 54.9365627 31.0447761 57.3251089 0 57.3251089 0 0"></polygon>
                </g>
            </g>
        </g>
    </g>
</svg>